# xmcd
#
# Track frame offsets:
# 150
# 12342
# 24725
# 36796
# 55034
# 66115
# 75366
# 89225
# 100936
# 113506
# 131966
# 141990
#
# Disc length: 2055 seconds
#
# Revision: 0
# Processed by: cddbd v1.5PL3 Copyright (c) Steve Scherf et al.
# Submitted via: Audion 3.0.2 (http://www.panic.com/audion/)
#
DISCID=a008050c
DTITLE=Cole Porter - Cole Porter (Orchestra)
DYEAR=1900
DGENRE=
TTITLE0=Night and day
TTITLE1=So in love
TTITLE2=C'est magnifique
TTITLE3=From this moment on
TTITLE4=It's alright with me
TTITLE5=Wunderbar
TTITLE6=True love
TTITLE7=I love Paris
TTITLE8=What is this thing called love
TTITLE9=Begin the beguine
TTITLE10=Can Can
TTITLE11=My heart belongs to daddy
EXTD=
EXTT0=
EXTT1=
EXTT2=
EXTT3=
EXTT4=
EXTT5=
EXTT6=
EXTT7=
EXTT8=
EXTT9=
EXTT10=
EXTT11=
PLAYORDER=
